<svg width="23.143" xmlns="http://www.w3.org/2000/svg" height="22.645" fill="none"><g data-testid="github" style="fill: rgb(0, 0, 0);"><path d="M11.571 2.265c-5.112 0-9.257 4.055-9.257 9.058 0 4.244 2.987 7.796 7.014 8.778a1.299 1.299 0 0 1-.071-.44v-1.548H8.094c-.634 0-1.197-.266-1.47-.762-.303-.55-.355-1.391-1.107-1.906-.223-.172-.053-.367.204-.341.474.132.868.45 1.238.923.369.473.542.58 1.231.58.334 0 .834-.019 1.305-.091.253-.629.69-1.208 1.225-1.481-3.083-.31-4.554-1.811-4.554-3.848 0-.877.382-1.726 1.031-2.441-.213-.709-.481-2.156.081-2.707 1.387 0 2.226.88 2.427 1.118a7.075 7.075 0 0 1 2.248-.363c.799 0 1.562.131 2.254.364.199-.236 1.039-1.119 2.429-1.119.565.551.294 2.005.079 2.713.644.713 1.024 1.559 1.024 2.435 0 2.036-1.469 3.535-4.547 3.847.847.433 1.465 1.648 1.465 2.564v2.063c0 .079-.018.135-.027.203 3.607-1.238 6.199-4.589 6.199-8.541 0-5.003-4.145-9.058-9.258-9.058Z" style="fill: rgb(134, 134, 134); fill-opacity: 0.88;" class="fills" data-testid="svg-path"/></g></svg>