<svg width="22.14" xmlns="http://www.w3.org/2000/svg" height="23.4" fill="none"><g data-testid="twitter" xml:space="preserve" style="fill: rgb(0, 0, 0);"><path d="M11.07 0C4.956 0 0 5.238 0 11.7c0 6.462 4.956 11.7 11.07 11.7s11.07-5.238 11.07-11.7C22.14 5.238 17.184 0 11.07 0Zm6.91 18.999a9.661 9.661 0 0 1-3.105 2.212 9.235 9.235 0 0 1-3.805.809 9.327 9.327 0 0 1-3.805-.809 9.74 9.74 0 0 1-3.105-2.212 10.265 10.265 0 0 1-2.093-3.282c-.51-1.27-.77-2.623-.77-4.017 0-1.394.26-2.747.766-4.022a10.354 10.354 0 0 1 2.093-3.281A9.782 9.782 0 0 1 7.265 2.18a9.327 9.327 0 0 1 3.805-.809c1.319 0 2.599.274 3.805.809a9.74 9.74 0 0 1 3.105 2.212c.9.951 1.604 2.052 2.093 3.282.51 1.27.765 2.623.765 4.021 0 1.394-.259 2.747-.765 4.022a10.365 10.365 0 0 1-2.093 3.282Z" style="fill: rgb(134, 134, 134); fill-opacity: 0.88;" class="fills" data-testid="svg-path"/><path d="M16.315 7.683a4.497 4.497 0 0 1-1.444.585 2.224 2.224 0 0 0-1.661-.759c-1.254 0-2.274 1.079-2.274 2.404 0 .187.017.37.06.548-1.889-.1-3.567-1.055-4.687-2.513a2.511 2.511 0 0 0-.307 1.211c0 .832.402 1.568 1.012 2.002a2.215 2.215 0 0 1-1.029-.302v.027c0 1.166.782 2.139 1.825 2.359a2.18 2.18 0 0 1-1.03.045c.29.956 1.129 1.65 2.124 1.669a4.416 4.416 0 0 1-3.369.996 6.196 6.196 0 0 0 3.485 1.079c4.186 0 6.474-3.666 6.474-6.842 0-.105 0-.21-.005-.311a4.725 4.725 0 0 0 1.133-1.248c-.406.192-.847.32-1.306.38.472-.297.831-.768.999-1.33Z" style="fill: rgb(134, 134, 134); fill-opacity: 0.88;" class="fills" data-testid="svg-path"/></g></svg>